<?xml version="1.0" standalone="no"?>
<!DOCTYPE svg PUBLIC "-//W3C//DTD SVG 20010904//EN"
 "http://www.w3.org/TR/2001/REC-SVG-20010904/DTD/svg10.dtd">
<svg version="1.0" xmlns="http://www.w3.org/2000/svg"
 width="334.000000pt" height="334.000000pt" viewBox="0 0 334.000000 334.000000"
 preserveAspectRatio="xMidYMid meet">
<metadata>
Created by potrace 1.14, written by Peter Selinger 2001-2017
</metadata>
<g transform="translate(0.000000,334.000000) scale(0.100000,-0.100000)"
fill="#000000" stroke="none">
<path d="M1620 3309 c-30 -16 -73 -40 -95 -52 -72 -41 -149 -84 -210 -117 -33
-18 -89 -49 -125 -70 -36 -20 -87 -50 -115 -65 -83 -46 -133 -74 -297 -166
-87 -49 -188 -105 -225 -126 -38 -20 -90 -50 -118 -66 -27 -16 -59 -34 -70
-39 -11 -5 -29 -14 -40 -21 -11 -7 -48 -28 -82 -47 l-63 -35 0 -838 c0 -771 1
-838 17 -844 9 -4 84 -44 167 -91 152 -85 634 -354 714 -398 23 -13 53 -30 65
-38 12 -7 51 -29 87 -48 36 -20 139 -77 230 -128 229 -129 210 -121 234 -108
12 6 230 128 486 271 256 143 479 268 495 277 17 9 106 59 198 111 92 52 185
103 205 114 21 11 50 28 64 37 l26 17 0 833 0 833 -277 154 c-601 336 -942
527 -1071 600 -74 42 -137 77 -140 78 -3 1 -30 -11 -60 -28z"/>
</g>
</svg>
