<svg width="210" height="56" viewBox="0 0 210 56" fill="none" xmlns="http://www.w3.org/2000/svg">
<path d="M19.373 33.332L25.1113 42.625C26.8548 39.8151 28.082 36.1673 28.793 31.6816L28.9199 30.8945H31.6621C31.6621 35.6172 30.0286 40.4329 26.7617 45.3418L32.2969 54.1016H22.0391L20.6172 51.8164C18.0951 53.8307 15.446 54.8379 12.6699 54.8379C9.48763 54.8379 6.7793 53.8223 4.54492 51.791C2.31055 49.7428 1.19336 47.2715 1.19336 44.377C1.19336 40.4329 4.09635 37.1322 9.90234 34.4746C7.9388 31.5801 6.95703 29.1595 6.95703 27.2129C6.95703 24.7754 7.86263 22.7695 9.67383 21.1953C11.485 19.6211 13.7871 18.834 16.5801 18.834C21.6751 18.834 24.2227 21.0938 24.2227 25.6133C24.2227 28.9648 22.6061 31.5378 19.373 33.332ZM11.4258 36.9883C9.68229 37.9193 8.81055 39.2734 8.81055 41.0508C8.81055 43.1836 9.61458 45.3926 11.2227 47.6777C12.8477 49.9629 14.4134 51.1055 15.9199 51.1055C16.9694 51.1055 18.0104 50.4876 19.043 49.252L11.4258 36.9883ZM17.9258 30.9707C19.9909 29.8197 21.0234 28.2031 21.0234 26.1211C21.0234 23.1081 19.737 21.6016 17.1641 21.6016C15.4375 21.6016 14.5742 22.4987 14.5742 24.293C14.5742 25.1732 14.8789 26.1126 15.4883 27.1113L17.9258 30.9707Z" fill="white"/>
<path d="M59.6865 2.67236V26H53.1582V9.76465L48.6123 26H44.8354L40.1699 10.0381V26H37.897V2.67236H44.7671L48.7661 16.7544L52.748 2.67236H59.6865ZM76.0654 2.67236L82.5596 26H75.7578L74.3735 20.9414H67.3496L65.8628 26H63.2139L70.1182 2.67236H76.0654ZM68.0161 18.6001H73.7412L70.9897 8.26074L68.0161 18.6001ZM95.2812 13.4048H104.886V26H102.732L101.998 24.3936C100.118 25.7266 98.1296 26.3931 96.0332 26.3931C92.5811 26.3931 89.8979 25.362 87.9839 23.2998C86.0812 21.2262 85.1299 18.3096 85.1299 14.5498C85.1299 10.8926 86.1382 7.93604 88.1548 5.68018C90.1828 3.41292 92.8317 2.2793 96.1016 2.2793C100.408 2.2793 103.029 4.47819 103.963 8.87598L100.784 10.3286V9.76465L100.733 8.5C100.516 5.75423 99.2461 4.38135 96.9219 4.38135C95.2129 4.38135 94.0451 5.11051 93.4185 6.56885C92.7918 8.02718 92.4785 10.7445 92.4785 14.7207C92.4785 18.4349 92.7292 20.9585 93.2305 22.2915C93.7432 23.6245 94.7116 24.291 96.1357 24.291C97.8105 24.291 98.6479 23.3568 98.6479 21.4883V15.7461H95.2812V13.4048ZM116.77 2.67236V26H110.002V2.67236H116.77ZM138.02 16.6348L140.908 17.3867C140.953 17.9792 140.976 18.4919 140.976 18.9248C140.976 21.1921 140.156 23.0036 138.515 24.3594C136.875 25.7152 134.676 26.3931 131.918 26.3931C125.003 26.3931 121.545 22.5023 121.545 14.7207C121.545 11.0293 122.553 8.03857 124.57 5.74854C126.586 3.4471 129.213 2.29639 132.448 2.29639C137.495 2.29639 140.019 4.72314 140.019 9.57666L137.114 10.9097C137.148 10.2261 137.165 9.69629 137.165 9.32031C137.165 5.87956 135.786 4.15918 133.029 4.15918C130.113 4.15918 128.654 7.81071 128.654 15.1138C128.654 21.3914 130.284 24.5303 133.542 24.5303C134.886 24.5303 136.003 23.9948 136.892 22.9238C137.792 21.8529 138.242 20.5142 138.242 18.9077C138.242 18.395 138.168 17.6374 138.02 16.6348Z" fill="#2D3025"/>
<path d="M55.0723 30.6724V54H49.894L40.1528 39.2344V54H37.8799V30.6724H42.1694L52.7993 46.6172V30.6724H55.0723ZM70.2549 30.2622C77.0452 30.2622 80.4404 34.284 80.4404 42.3276C80.4404 50.3713 76.9826 54.3931 70.0669 54.3931C63.1512 54.3931 59.6934 50.2801 59.6934 42.0542C59.6934 34.1929 63.2139 30.2622 70.2549 30.2622ZM70.0669 32.125C68.7909 32.125 67.925 32.8314 67.4692 34.2441C67.0249 35.6455 66.8027 38.34 66.8027 42.3276C66.8027 46.3153 67.0249 49.0155 67.4692 50.4282C67.925 51.8296 68.7909 52.5303 70.0669 52.5303C71.3429 52.5303 72.2031 51.8296 72.6475 50.4282C73.1032 49.0155 73.3311 46.3153 73.3311 42.3276C73.3311 38.3514 73.1032 35.6569 72.6475 34.2441C72.2031 32.8314 71.3429 32.125 70.0669 32.125ZM102.254 30.6724V54H97.0757L87.3345 39.2344V54H85.0615V30.6724H89.3511L99.981 46.6172V30.6724H102.254ZM123.145 37.2007L120 37.7817C120.137 37.1551 120.205 36.631 120.205 36.2095C120.205 33.4979 118.559 32.1421 115.266 32.1421C112.668 32.1421 111.37 33.0763 111.37 34.9448C111.37 36.3462 112.822 37.5482 115.728 38.5508C121.333 40.4762 124.136 43.3245 124.136 47.0957C124.136 49.306 123.35 51.0833 121.777 52.4277C120.205 53.7607 118.114 54.4272 115.505 54.4272C109.729 54.4272 106.841 52.1885 106.841 47.7109C106.841 47.3464 106.869 46.8963 106.926 46.3608L110.19 45.6431C109.94 46.6343 109.814 47.4945 109.814 48.2236C109.814 51.1175 111.472 52.5645 114.788 52.5645C117.442 52.5645 118.77 51.522 118.77 49.437C118.77 47.8875 117.18 46.526 114.001 45.3525C109.41 43.6663 107.114 40.9718 107.114 37.269C107.114 35.1727 107.878 33.4865 109.404 32.2104C110.942 30.923 112.959 30.2793 115.454 30.2793C120.581 30.2793 123.145 32.5864 123.145 37.2007ZM143.967 30.6724V33.0137H135.61V40.0718H142.634V42.4131H135.61V51.6587H145.385V54H128.842V30.6724H143.967ZM166.327 30.6724V54H161.149L151.408 39.2344V54H149.135V30.6724H153.424L164.054 46.6172V30.6724H166.327ZM187.218 37.2007L184.073 37.7817C184.21 37.1551 184.278 36.631 184.278 36.2095C184.278 33.4979 182.632 32.1421 179.339 32.1421C176.742 32.1421 175.443 33.0763 175.443 34.9448C175.443 36.3462 176.896 37.5482 179.801 38.5508C185.406 40.4762 188.209 43.3245 188.209 47.0957C188.209 49.306 187.423 51.0833 185.851 52.4277C184.278 53.7607 182.188 54.4272 179.579 54.4272C173.802 54.4272 170.914 52.1885 170.914 47.7109C170.914 47.3464 170.943 46.8963 171 46.3608L174.264 45.6431C174.013 46.6343 173.888 47.4945 173.888 48.2236C173.888 51.1175 175.545 52.5645 178.861 52.5645C181.515 52.5645 182.843 51.522 182.843 49.437C182.843 47.8875 181.253 46.526 178.075 45.3525C173.483 43.6663 171.188 40.9718 171.188 37.269C171.188 35.1727 171.951 33.4865 173.478 32.2104C175.016 30.923 177.032 30.2793 179.527 30.2793C184.654 30.2793 187.218 32.5864 187.218 37.2007ZM208.04 30.6724V33.0137H199.683V40.0718H206.707V42.4131H199.683V51.6587H209.458V54H192.916V30.6724H208.04Z" fill="#F5A65B"/>
</svg>
