<svg width="223" height="55" viewBox="0 0 223 55" fill="none" xmlns="http://www.w3.org/2000/svg">
<path d="M19.373 32.332L25.1113 41.625C26.8548 38.8151 28.082 35.1673 28.793 30.6816L28.9199 29.8945H31.6621C31.6621 34.6172 30.0286 39.4329 26.7617 44.3418L32.2969 53.1016H22.0391L20.6172 50.8164C18.0951 52.8307 15.446 53.8379 12.6699 53.8379C9.48763 53.8379 6.7793 52.8223 4.54492 50.791C2.31055 48.7428 1.19336 46.2715 1.19336 43.377C1.19336 39.4329 4.09635 36.1322 9.90234 33.4746C7.9388 30.5801 6.95703 28.1595 6.95703 26.2129C6.95703 23.7754 7.86263 21.7695 9.67383 20.1953C11.485 18.6211 13.7871 17.834 16.5801 17.834C21.6751 17.834 24.2227 20.0938 24.2227 24.6133C24.2227 27.9648 22.6061 30.5378 19.373 32.332ZM11.4258 35.9883C9.68229 36.9193 8.81055 38.2734 8.81055 40.0508C8.81055 42.1836 9.61458 44.3926 11.2227 46.6777C12.8477 48.9629 14.4134 50.1055 15.9199 50.1055C16.9694 50.1055 18.0104 49.4876 19.043 48.252L11.4258 35.9883ZM17.9258 29.9707C19.9909 28.8197 21.0234 27.2031 21.0234 25.1211C21.0234 22.1081 19.737 20.6016 17.1641 20.6016C15.4375 20.6016 14.5742 21.4987 14.5742 23.293C14.5742 24.1732 14.8789 25.1126 15.4883 26.1113L17.9258 29.9707Z" fill="white"/>
<path d="M59.6865 1.67236V25H53.1582V8.76465L48.6123 25H44.8354L40.1699 9.03809V25H37.897V1.67236H44.7671L48.7661 15.7544L52.748 1.67236H59.6865ZM76.0654 1.67236L82.5596 25H75.7578L74.3735 19.9414H67.3496L65.8628 25H63.2139L70.1182 1.67236H76.0654ZM68.0161 17.6001H73.7412L70.9897 7.26074L68.0161 17.6001ZM95.2812 12.4048H104.886V25H102.732L101.998 23.3936C100.118 24.7266 98.1296 25.3931 96.0332 25.3931C92.5811 25.3931 89.8979 24.362 87.9839 22.2998C86.0812 20.2262 85.1299 17.3096 85.1299 13.5498C85.1299 9.89258 86.1382 6.93604 88.1548 4.68018C90.1828 2.41292 92.8317 1.2793 96.1016 1.2793C100.408 1.2793 103.029 3.47819 103.963 7.87598L100.784 9.32861V8.76465L100.733 7.5C100.516 4.75423 99.2461 3.38135 96.9219 3.38135C95.2129 3.38135 94.0451 4.11051 93.4185 5.56885C92.7918 7.02718 92.4785 9.74447 92.4785 13.7207C92.4785 17.4349 92.7292 19.9585 93.2305 21.2915C93.7432 22.6245 94.7116 23.291 96.1357 23.291C97.8105 23.291 98.6479 22.3568 98.6479 20.4883V14.7461H95.2812V12.4048ZM116.77 1.67236V25H110.002V1.67236H116.77ZM138.02 15.6348L140.908 16.3867C140.953 16.9792 140.976 17.4919 140.976 17.9248C140.976 20.1921 140.156 22.0036 138.515 23.3594C136.875 24.7152 134.676 25.3931 131.918 25.3931C125.003 25.3931 121.545 21.5023 121.545 13.7207C121.545 10.0293 122.553 7.03857 124.57 4.74854C126.586 2.4471 129.213 1.29639 132.448 1.29639C137.495 1.29639 140.019 3.72314 140.019 8.57666L137.114 9.90967C137.148 9.22607 137.165 8.69629 137.165 8.32031C137.165 4.87956 135.786 3.15918 133.029 3.15918C130.113 3.15918 128.654 6.81071 128.654 14.1138C128.654 20.3914 130.284 23.5303 133.542 23.5303C134.886 23.5303 136.003 22.9948 136.892 21.9238C137.792 20.8529 138.242 19.5142 138.242 17.9077C138.242 17.395 138.168 16.6374 138.02 15.6348Z" fill="#2D3025"/>
<path d="M55.0723 29.6724V53H49.894L40.1528 38.2344V53H37.8799V29.6724H42.1694L52.7993 45.6172V29.6724H55.0723ZM70.2549 29.2622C77.0452 29.2622 80.4404 33.284 80.4404 41.3276C80.4404 49.3713 76.9826 53.3931 70.0669 53.3931C63.1512 53.3931 59.6934 49.2801 59.6934 41.0542C59.6934 33.1929 63.2139 29.2622 70.2549 29.2622ZM70.0669 31.125C68.7909 31.125 67.925 31.8314 67.4692 33.2441C67.0249 34.6455 66.8027 37.34 66.8027 41.3276C66.8027 45.3153 67.0249 48.0155 67.4692 49.4282C67.925 50.8296 68.7909 51.5303 70.0669 51.5303C71.3429 51.5303 72.2031 50.8296 72.6475 49.4282C73.1032 48.0155 73.3311 45.3153 73.3311 41.3276C73.3311 37.3514 73.1032 34.6569 72.6475 33.2441C72.2031 31.8314 71.3429 31.125 70.0669 31.125ZM102.254 29.6724V53H97.0757L87.3345 38.2344V53H85.0615V29.6724H89.3511L99.981 45.6172V29.6724H102.254ZM123.145 36.2007L120 36.7817C120.137 36.1551 120.205 35.631 120.205 35.2095C120.205 32.4979 118.559 31.1421 115.266 31.1421C112.668 31.1421 111.37 32.0763 111.37 33.9448C111.37 35.3462 112.822 36.5482 115.728 37.5508C121.333 39.4762 124.136 42.3245 124.136 46.0957C124.136 48.306 123.35 50.0833 121.777 51.4277C120.205 52.7607 118.114 53.4272 115.505 53.4272C109.729 53.4272 106.841 51.1885 106.841 46.7109C106.841 46.3464 106.869 45.8963 106.926 45.3608L110.19 44.6431C109.94 45.6343 109.814 46.4945 109.814 47.2236C109.814 50.1175 111.472 51.5645 114.788 51.5645C117.442 51.5645 118.77 50.522 118.77 48.437C118.77 46.8875 117.18 45.526 114.001 44.3525C109.41 42.6663 107.114 39.9718 107.114 36.269C107.114 34.1727 107.878 32.4865 109.404 31.2104C110.942 29.923 112.959 29.2793 115.454 29.2793C120.581 29.2793 123.145 31.5864 123.145 36.2007ZM143.967 29.6724V32.0137H135.61V39.0718H142.634V41.4131H135.61V50.6587H145.385V53H128.842V29.6724H143.967ZM166.327 29.6724V53H161.149L151.408 38.2344V53H149.135V29.6724H153.424L164.054 45.6172V29.6724H166.327ZM187.218 36.2007L184.073 36.7817C184.21 36.1551 184.278 35.631 184.278 35.2095C184.278 32.4979 182.632 31.1421 179.339 31.1421C176.742 31.1421 175.443 32.0763 175.443 33.9448C175.443 35.3462 176.896 36.5482 179.801 37.5508C185.406 39.4762 188.209 42.3245 188.209 46.0957C188.209 48.306 187.423 50.0833 185.851 51.4277C184.278 52.7607 182.188 53.4272 179.579 53.4272C173.802 53.4272 170.914 51.1885 170.914 46.7109C170.914 46.3464 170.943 45.8963 171 45.3608L174.264 44.6431C174.013 45.6343 173.888 46.4945 173.888 47.2236C173.888 50.1175 175.545 51.5645 178.861 51.5645C181.515 51.5645 182.843 50.522 182.843 48.437C182.843 46.8875 181.253 45.526 178.075 44.3525C173.483 42.6663 171.188 39.9718 171.188 36.269C171.188 34.1727 171.951 32.4865 173.478 31.2104C175.016 29.923 177.032 29.2793 179.527 29.2793C184.654 29.2793 187.218 31.5864 187.218 36.2007ZM208.04 29.6724V32.0137H199.683V39.0718H206.707V41.4131H199.683V50.6587H209.458V53H192.916V29.6724H208.04Z" fill="#F5A65B"/>
</svg>
